<?xml version="1.0" standalone="no"?>
<!DOCTYPE svg PUBLIC "-//W3C//DTD SVG 20010904//EN"
 "http://www.w3.org/TR/2001/REC-SVG-20010904/DTD/svg10.dtd">
<svg version="1.0" xmlns="http://www.w3.org/2000/svg"
 width="16.000000pt" height="16.000000pt" viewBox="0 0 16.000000 16.000000"
 preserveAspectRatio="xMidYMid meet">
<metadata>
Created by potrace 1.11, written by Peter Selinger 2001-2013
</metadata>
<g transform="translate(0.000000,16.000000) scale(0.002749,-0.002749)"
fill="#000000" stroke="none">
<path d="M1934 5806 c-9 -23 -12 -48 -13 -89 -1 -23 -5 -36 -11 -32 -5 3 -10
-4 -11 -17 -1 -21 -2 -43 -13 -173 -2 -27 -7 -58 -11 -67 -5 -13 -2 -18 11
-18 16 0 16 -1 -2 -14 -15 -12 -17 -17 -6 -27 6 -7 12 -27 12 -43 0 -17 4 -38
9 -46 6 -8 7 -19 3 -25 -10 -16 -11 -35 -2 -35 5 0 2 -19 -6 -42 -10 -28 -11
-44 -4 -46 14 -5 13 -29 -2 -35 -7 -3 -3 -6 10 -6 25 -1 28 -11 10 -29 -8 -8
-9 -15 -3 -20 6 -4 11 -29 12 -57 5 -88 15 -150 27 -157 8 -5 7 -8 -3 -8 -9 0
-11 -7 -8 -21 3 -11 1 -64 -4 -117 -6 -53 -10 -114 -10 -134 0 -25 -8 -45 -25
-63 -16 -17 -24 -38 -24 -61 0 -18 -4 -34 -10 -34 -5 0 -10 -6 -10 -13 0 -18
-23 -67 -32 -67 -4 0 -12 -19 -18 -41 -7 -27 -18 -43 -31 -46 -10 -3 -19 -13
-19 -23 0 -18 -113 -140 -130 -140 -6 0 -10 -5 -10 -10 0 -13 -46 -60 -58 -60
-5 0 -15 -6 -22 -14 -6 -8 -18 -12 -26 -9 -8 3 -14 -1 -14 -11 0 -9 -6 -16
-14 -16 -8 0 -36 -18 -62 -40 -27 -22 -54 -38 -61 -36 -7 3 -15 1 -18 -4 -3
-5 -31 -16 -63 -25 -31 -9 -77 -25 -101 -37 -25 -11 -69 -21 -98 -21 -29 -1
-53 -5 -53 -9 0 -5 -22 -8 -48 -8 -27 0 -52 -3 -55 -6 -8 -8 -40 -11 -222 -19
-271 -12 -296 -14 -330 -25 -18 -6 -40 -10 -47 -9 -7 1 -26 -3 -41 -9 -16 -7
-34 -12 -40 -12 -31 0 -170 -66 -202 -95 l-35 -34 0 -288 c0 -276 1 -289 20
-306 11 -9 20 -23 20 -30 0 -8 10 -19 23 -26 13 -7 31 -26 41 -42 10 -16 22
-27 27 -24 5 4 9 1 9 -5 0 -6 5 -8 10 -5 6 3 10 -4 10 -16 0 -12 3 -20 6 -16
7 6 10 4 74 -53 25 -22 48 -40 53 -40 4 0 26 -13 48 -30 23 -16 46 -27 52 -23
5 3 7 2 4 -3 -3 -6 36 -38 86 -73 146 -99 277 -199 290 -218 4 -7 12 -13 18
-13 12 0 123 -111 179 -180 25 -30 50 -59 56 -65 10 -9 60 -80 92 -130 7 -11
15 -28 18 -38 4 -9 10 -17 15 -17 6 0 13 -8 16 -17 4 -10 20 -37 35 -59 15
-23 28 -46 28 -52 0 -6 3 -12 8 -14 11 -5 48 -61 56 -86 4 -12 11 -22 15 -22
4 0 12 -15 19 -34 11 -29 20 -44 61 -92 5 -7 7 -14 5 -17 -3 -3 5 -22 19 -44
13 -21 32 -57 42 -80 10 -24 22 -43 27 -43 4 0 8 -8 8 -19 0 -10 7 -24 15 -31
8 -7 15 -21 15 -31 0 -11 4 -19 8 -19 4 0 9 -10 9 -22 1 -13 7 -24 13 -26 5
-2 10 -12 10 -22 0 -10 4 -21 9 -25 5 -3 17 -27 26 -53 23 -65 35 -92 51 -125
8 -16 14 -37 14 -48 0 -10 5 -19 10 -19 6 0 10 -10 10 -22 0 -37 23 -138 32
-138 4 0 8 -8 8 -17 0 -19 18 -79 31 -105 5 -10 9 -29 9 -42 0 -14 5 -28 10
-31 6 -3 10 -22 10 -41 0 -19 5 -34 11 -34 7 0 9 -11 6 -27 -3 -15 -1 -34 4
-42 13 -24 38 -130 45 -186 3 -27 9 -52 13 -55 5 -3 12 -42 16 -87 l7 -83 929
0 c877 0 930 1 935 17 3 10 9 27 14 38 4 11 25 64 46 117 21 54 41 98 46 98 4
0 8 8 8 17 0 10 11 40 24 68 13 27 27 57 30 65 4 8 17 35 31 59 14 24 25 49
25 54 0 6 11 24 24 41 23 31 42 74 38 89 -1 5 2 6 6 3 10 -6 72 132 72 158 0
8 5 16 11 18 11 4 58 126 66 173 3 17 10 35 15 42 5 7 11 22 13 35 9 49 18 83
27 94 5 7 11 25 13 40 2 16 20 103 39 195 19 91 34 176 34 190 0 13 4 54 9 91
10 75 9 318 -2 448 -16 192 -20 349 -11 392 3 13 8 50 10 84 3 33 12 73 21 90
8 16 15 36 15 45 0 24 57 127 96 176 19 23 34 46 34 52 0 6 3 11 8 11 4 0 32
23 62 50 30 28 58 50 62 50 3 0 13 6 20 13 28 25 264 147 285 147 7 0 13 4 13
8 0 10 56 35 133 62 27 9 51 21 55 27 4 6 16 13 27 15 11 1 25 10 32 18 6 8
15 12 18 8 4 -4 28 5 54 19 25 15 62 35 81 45 64 35 80 45 98 61 10 10 23 17
29 17 6 0 13 7 17 15 3 8 12 15 21 15 8 0 15 5 15 10 0 6 7 10 15 10 8 0 15 5
15 10 0 6 7 10 15 10 8 0 15 7 15 15 0 8 4 15 9 15 5 0 30 20 57 45 26 25 51
45 56 45 4 0 8 5 8 10 0 6 14 24 30 40 17 16 30 34 30 40 0 5 9 15 20 22 19
12 20 24 20 360 0 190 -3 353 -6 362 -3 9 -15 16 -25 16 -11 0 -22 6 -25 14
-6 16 -75 46 -113 51 -13 1 -26 7 -30 12 -7 12 -108 27 -166 26 -22 -1 -72 -3
-112 -4 -40 -1 -109 -10 -155 -19 -46 -10 -86 -16 -90 -14 -3 2 -38 -3 -78
-11 -39 -8 -86 -15 -105 -15 -19 0 -37 -4 -40 -10 -3 -5 -24 -10 -46 -10 -21
0 -39 -3 -39 -7 0 -9 -264 -9 -300 0 -14 3 -58 14 -98 23 -40 9 -75 21 -78 25
-3 5 -22 9 -44 9 -24 0 -40 5 -44 15 -3 8 -15 15 -26 15 -11 0 -20 4 -20 8 0
4 -10 9 -22 9 -13 1 -24 7 -26 13 -2 5 -8 7 -14 4 -5 -3 -12 3 -15 15 -3 14
-13 21 -28 21 -33 0 -72 23 -67 39 3 8 0 11 -6 7 -5 -3 -12 1 -16 9 -3 8 -11
15 -18 15 -7 0 -26 11 -41 26 -15 14 -31 23 -36 19 -5 -3 -15 9 -23 26 -10 23
-18 29 -35 26 -13 -2 -23 1 -23 7 0 6 -9 18 -20 26 -11 8 -20 19 -20 26 0 6
-11 16 -25 22 -14 6 -25 16 -25 22 0 5 -9 10 -20 10 -13 0 -18 5 -14 15 4 9 0
15 -10 15 -9 0 -16 8 -16 19 0 14 -6 17 -25 13 -20 -3 -25 0 -25 17 0 12 -6
21 -15 21 -8 0 -15 9 -15 20 0 15 -9 22 -30 27 -33 6 -36 13 -18 31 9 9 8 12
-5 12 -9 0 -17 8 -18 18 0 10 -3 12 -6 5 -7 -19 -20 -16 -45 9 -14 14 -18 23
-10 26 7 2 12 13 12 25 0 18 -2 19 -10 7 -6 -9 -10 -10 -10 -3 0 6 -9 15 -20
18 -11 4 -18 10 -16 14 3 4 -4 14 -15 21 -10 8 -19 20 -19 27 0 7 -4 13 -10
13 -5 0 -10 9 -10 20 0 11 -4 20 -9 20 -6 0 -8 17 -5 38 2 20 2 31 -2 25 -3
-7 -13 -13 -22 -13 -15 0 -15 2 -2 10 10 6 11 10 3 10 -7 0 -13 9 -13 20 0 11
-11 30 -25 42 -29 25 -33 48 -7 48 16 1 16 1 0 14 -10 7 -18 26 -18 41 0 15
-8 34 -17 41 -12 9 -13 13 -5 14 8 0 6 8 -8 22 -21 23 -27 44 -10 33 17 -11
11 7 -7 21 -27 21 -1261 20 -1269 0z"/>
</g>
</svg>
